<svg xmlns="http://www.w3.org/2000/svg" width="308.2" height="52" viewBox="0 0 308.2 52"><path fill="#5499f0" d="M0 0h52.2v52H0z"/><path fill="#fff" d="M52.2 0h52.2v52H52.2z"/><path fill="#5499f0" d="M66 13.7h10.9a15.9 15.9 0 0 1 7.1 1.5 11.3 11.3 0 0 1 4.9 4.4 12 12 0 0 1 1.7 6.4 12.1 12.1 0 0 1-1.7 6.5 11.6 11.6 0 0 1-4.8 4.3 16.2 16.2 0 0 1-7.2 1.5h-11zm10.7 20.7a10.9 10.9 0 0 0 4.8-1 7.5 7.5 0 0 0 3.3-3 8.6 8.6 0 0 0 1.1-4.4 8.4 8.4 0 0 0-1.1-4.4 7.3 7.3 0 0 0-3.3-3 10.6 10.6 0 0 0-4.8-1h-6.1v16.8z"/><path fill="#fff" d="M22.4 17.5V25h11.8V29H22.4v9.4h-4.5V13.7h17.8v3.8zM128.8 12.8a9.3 9.3 0 0 1 2.3.3 10.8 10.8 0 0 1 1.5.5l-.8 3.8a4.7 4.7 0 0 0-1.2-.3 8.2 8.2 0 0 0-1.3-.1 3.9 3.9 0 0 0-1.5.2 2.3 2.3 0 0 0-1 .7 3 3 0 0 0-.4 1 5.9 5.9 0 0 0-.2 1.3v.8h6v4.1h-6v13.2h-4.8V20.1a7.4 7.4 0 0 1 1.8-5.3 7.5 7.5 0 0 1 5.6-2zM140 38.3h-4.9V21h5zm.5-22.3a2.7 2.7 0 0 1-1 2.2 3 3 0 0 1-2 .7 3 3 0 0 1-2-.7 2.8 2.8 0 0 1-.9-2.2 2.7 2.7 0 0 1 .9-2 3 3 0 0 1 2-.8 2.9 2.9 0 0 1 2 .7 2.6 2.6 0 0 1 1 2.1zM144.8 16.7l4.9-.7v5h5.8v4.1h-5.8v6a5 5 0 0 0 .5 2.6 2.4 2.4 0 0 0 2.2.9 10.2 10.2 0 0 0 1.6-.2 9.2 9.2 0 0 0 1.5-.4l.7 3.8a14 14 0 0 1-2 .6 11.5 11.5 0 0 1-2.6.3 9 9 0 0 1-3.3-.5 5.4 5.4 0 0 1-2.1-1.5 6 6 0 0 1-1.1-2.4 14.6 14.6 0 0 1-.3-3zM159.9 21.6a25.6 25.6 0 0 1 3.2-.6 25.1 25.1 0 0 1 4.1-.4 9.7 9.7 0 0 1 3.7.6 5.4 5.4 0 0 1 2.3 1.6 6.3 6.3 0 0 1 1.2 2.5 13.3 13.3 0 0 1 .4 3.3v9.7h-5v-9.1a6.6 6.6 0 0 0-.6-3.4 2.5 2.5 0 0 0-2.3-1 10.1 10.1 0 0 0-1.1 0l-1 .2v13.3h-5zM178.7 29.8a10.7 10.7 0 0 1 .7-4 8.8 8.8 0 0 1 1.9-2.9 7.8 7.8 0 0 1 2.6-1.7 8.4 8.4 0 0 1 3-.6 7.6 7.6 0 0 1 5.9 2.2q2.1 2.3 2.1 6.6v1.9h-11.2a3.3 3.3 0 0 0 1.4 2.4 5.7 5.7 0 0 0 3.4.9 14.8 14.8 0 0 0 2.6-.3 10.5 10.5 0 0 0 2.1-.6l.7 4a6.7 6.7 0 0 1-1 .4 11.5 11.5 0 0 1-1.5.3l-1.7.3a17.3 17.3 0 0 1-1.9 0 11 11 0 0 1-4-.6 8.2 8.2 0 0 1-2.9-1.9 8 8 0 0 1-1.7-2.8 11.6 11.6 0 0 1-.5-3.6zm11.5-1.9a4.6 4.6 0 0 0-.2-1.2 2.7 2.7 0 0 0-.6-1 2.8 2.8 0 0 0-1-.8 3 3 0 0 0-1.4-.3 3.1 3.1 0 0 0-1.4.3 2.7 2.7 0 0 0-1 .7 3.5 3.5 0 0 0-.6 1.1 7.5 7.5 0 0 0-.3 1.2zM204 34.8a4.9 4.9 0 0 0 1.9-.3 1 1 0 0 0 .5-1 1.2 1.2 0 0 0-.7-1 12.7 12.7 0 0 0-2.2-1l-2-.9a6.5 6.5 0 0 1-1.7-1 4.6 4.6 0 0 1-1-1.6 5.7 5.7 0 0 1-.3-2.2 4.6 4.6 0 0 1 1.8-3.8 7.9 7.9 0 0 1 5-1.4 15 15 0 0 1 3 .3 13.2 13.2 0 0 1 2.3.6l-.9 3.8a17.5 17.5 0 0 0-1.9-.5 9.9 9.9 0 0 0-2.2-.3q-2.3 0-2.3 1.3a1.3 1.3 0 0 0 .1.5 1.2 1.2 0 0 0 .4.5l.8.4 1.3.6a18.5 18.5 0 0 1 2.7 1.2 5.6 5.6 0 0 1 1.6 1.2 3.5 3.5 0 0 1 .9 1.5 6.2 6.2 0 0 1 .2 1.9 4.4 4.4 0 0 1-2 3.9 9.5 9.5 0 0 1-5.3 1.3 15.8 15.8 0 0 1-3.9-.4 15.6 15.6 0 0 1-2-.7l.7-4a17.3 17.3 0 0 0 2.6.8 13.2 13.2 0 0 0 2.6.3zM220.3 34.8a4.9 4.9 0 0 0 1.9-.3 1 1 0 0 0 .5-1 1.2 1.2 0 0 0-.7-1 12.6 12.6 0 0 0-2.2-1q-1.1-.4-2.1-1a6.5 6.5 0 0 1-1.6-1 4.6 4.6 0 0 1-1-1.5 5.7 5.7 0 0 1-.4-2.2 4.6 4.6 0 0 1 1.9-3.8 7.9 7.9 0 0 1 5-1.4 15 15 0 0 1 3 .3 13.2 13.2 0 0 1 2.2.6l-.8 3.8a17.5 17.5 0 0 0-1.9-.5 9.9 9.9 0 0 0-2.2-.3q-2.3 0-2.3 1.3a1.3 1.3 0 0 0 0 .5 1.2 1.2 0 0 0 .5.5l.8.4 1.3.6a18.6 18.6 0 0 1 2.6 1.2 5.6 5.6 0 0 1 1.7 1.2 3.5 3.5 0 0 1 .8 1.5 6.3 6.3 0 0 1 .3 1.9 4.4 4.4 0 0 1-2 3.9 9.5 9.5 0 0 1-5.4 1.3 15.8 15.8 0 0 1-3.8-.4 15.7 15.7 0 0 1-2.1-.7l.8-4a17.3 17.3 0 0 0 2.6.8 13.2 13.2 0 0 0 2.6.3zM237.7 34.1l.8.1h1.1q3.9 0 5.7-2a7.4 7.4 0 0 0 1.9-5.3 7.5 7.5 0 0 0-1.8-5.4q-1.7-1.8-5.6-1.8h-1a8 8 0 0 0-1.1 0zm14.8-7.2a13.3 13.3 0 0 1-1 5.2 9.5 9.5 0 0 1-2.6 3.6 11 11 0 0 1-4 2.2 19.1 19.1 0 0 1-5.5.7l-3.2-.1a24.7 24.7 0 0 1-3.6-.5V16a28.2 28.2 0 0 1 3.6-.5l3.4-.1a19.7 19.7 0 0 1 5.2.7 10.8 10.8 0 0 1 4.1 2 9.2 9.2 0 0 1 2.7 3.6 13.7 13.7 0 0 1 .9 5.3zM261.4 27a10.7 10.7 0 0 0 .4 3 7.5 7.5 0 0 0 1.2 2.3 5.5 5.5 0 0 0 1.9 1.5 6 6 0 0 0 2.5.5 5.9 5.9 0 0 0 2.6-.5 5 5 0 0 0 1.9-1.5 6.7 6.7 0 0 0 1.1-2.4 11 11 0 0 0 0-6 6.3 6.3 0 0 0-1.1-2.3 5 5 0 0 0-2-1.5 5.9 5.9 0 0 0-2.5-.6 5.7 5.7 0 0 0-2.5.6 5.3 5.3 0 0 0-2 1.5 7 7 0 0 0-1.1 2.3 10.6 10.6 0 0 0-.4 3zm17.4 0a14 14 0 0 1-1 5 10.6 10.6 0 0 1-2.3 3.8A9.9 9.9 0 0 1 272 38a13 13 0 0 1-4.5.8 12.7 12.7 0 0 1-4.4-.8 10.2 10.2 0 0 1-3.6-2.2A10.7 10.7 0 0 1 257 32a14 14 0 0 1-.9-5.2 13.2 13.2 0 0 1 1-5.1 11 11 0 0 1 2.4-3.7 10.4 10.4 0 0 1 3.6-2.3 12.5 12.5 0 0 1 4.3-.8 12.7 12.7 0 0 1 4.4.8 10 10 0 0 1 3.7 2.3 10.7 10.7 0 0 1 2.4 3.7 13.6 13.6 0 0 1 .9 5.1zM289.4 15.6l1.4 2.6 1.6 3.5 1.6 3.8 1.6 3.6 1.5-3.6 1.7-3.8 1.6-3.5 1.4-2.6h4.6q.4 2.2.6 5l.5 5.9.4 6 .3 5.8h-5l-.2-7.2-.5-7.9-1.3 3-1.5 3.4-1.3 3.2-1.1 2.6h-3.6l-1.1-2.6-1.4-3.2-1.4-3.3-1.3-3q-.4 3.9-.5 7.8t-.3 7.2h-5l.3-5.7.4-6.1.5-5.9.6-5z"/></svg>