<svg xmlns="http://www.w3.org/2000/svg" viewBox="0 0 225.2 38"><g id="icon"><path fill="#5499f0" d="M0 0h38.1v38H0z"/><path fill="#37393a" d="M38.1 0h38.1v38H38.1z"/><path fill="#5499f0" d="M48.2 10h8a11.6 11.6 0 0 1 5.2 1.1 8.3 8.3 0 0 1 3.6 3.2 8.7 8.7 0 0 1 1.2 4.7 8.9 8.9 0 0 1-1.2 4.7 8.5 8.5 0 0 1-3.6 3.2 11.8 11.8 0 0 1-5.2 1.1h-8zM56 25.2a8 8 0 0 0 3.6-.8 5.5 5.5 0 0 0 2.3-2.1 6.3 6.3 0 0 0 .9-3.3 6.1 6.1 0 0 0-.9-3.2 5.3 5.3 0 0 0-2.3-2.2 7.7 7.7 0 0 0-3.6-.8h-4.4v12.4z"/><path fill="#fff" d="M16.4 12.8v5.5H25V21h-8.6v7H13V10h13v2.8z"/></g><g id="text"><path fill="#37393a" d="M94.2 9.4a6.8 6.8 0 0 1 1.6.1 7.9 7.9 0 0 1 1.1.4l-.6 2.8a3.4 3.4 0 0 0-.9-.2 6 6 0 0 0-.9-.1 2.8 2.8 0 0 0-1 .2 1.7 1.7 0 0 0-.8.5 2.1 2.1 0 0 0-.3.7 4.3 4.3 0 0 0-.1 1v.6h4.4v3h-4.4V28h-3.6V14.7a5.4 5.4 0 0 1 1.3-3.9 5.5 5.5 0 0 1 4.2-1.4zm8.1 18.6h-3.6V15.4h3.6zm.3-16.3a2 2 0 0 1-.6 1.6 2.2 2.2 0 0 1-1.5.5 2.3 2.3 0 0 1-1.5-.5 2 2 0 0 1-.6-1.6 2 2 0 0 1 .6-1.5 2.2 2.2 0 0 1 1.5-.6 2.1 2.1 0 0 1 1.5.6 2 2 0 0 1 .6 1.5zm3.2.5l3.6-.5v3.7h4.3v3h-4.3v4.4a3.6 3.6 0 0 0 .4 1.8 1.7 1.7 0 0 0 1.6.7 7.4 7.4 0 0 0 1.1-.1 6.8 6.8 0 0 0 1.2-.4l.5 2.8a10.2 10.2 0 0 1-1.5.5 8.4 8.4 0 0 1-2 .2 6.6 6.6 0 0 1-2.3-.4 4 4 0 0 1-1.6-1.1 4.3 4.3 0 0 1-.8-1.7 10.7 10.7 0 0 1-.2-2.3zm11 3.6a18.7 18.7 0 0 1 2.4-.5 18.4 18.4 0 0 1 3-.2 7 7 0 0 1 2.7.4 4 4 0 0 1 1.7 1.2 4.6 4.6 0 0 1 .8 1.8 9.7 9.7 0 0 1 .3 2.4V28h-3.6v-6.7a4.8 4.8 0 0 0-.4-2.4 1.9 1.9 0 0 0-1.7-.8 7.4 7.4 0 0 0-.8 0l-.8.2V28h-3.6zm13.8 6a7.8 7.8 0 0 1 .5-3 6.4 6.4 0 0 1 1.4-2 5.7 5.7 0 0 1 1.9-1.3 6.1 6.1 0 0 1 2.2-.5 5.6 5.6 0 0 1 4.3 1.7 6.7 6.7 0 0 1 1.5 4.8V23h-8.1a2.4 2.4 0 0 0 1 1.7 4.1 4.1 0 0 0 2.4.7 10.8 10.8 0 0 0 2-.2 7.7 7.7 0 0 0 1.5-.5l.5 3a5 5 0 0 1-.8.2 8.4 8.4 0 0 1-1 .3l-1.3.2a12.6 12.6 0 0 1-1.3 0 8 8 0 0 1-3-.5 6 6 0 0 1-2.1-1.3 5.8 5.8 0 0 1-1.2-2.1 8.5 8.5 0 0 1-.4-2.6zm8.4-1.4a3.4 3.4 0 0 0-.2-.9 2.53 2.53 0 0 0-1.1-1.3 2.2 2.2 0 0 0-1-.2 2.3 2.3 0 0 0-1 .2 2 2 0 0 0-.8.5 2.6 2.6 0 0 0-.4.8 5.5 5.5 0 0 0-.2 1zm10 5a3.6 3.6 0 0 0 1.5-.2.7.7 0 0 0 .4-.7.9.9 0 0 0-.6-.8 9.2 9.2 0 0 0-1.6-.7l-1.5-.6a4.7 4.7 0 0 1-1.2-.8 3.4 3.4 0 0 1-.7-1.2 4.1 4.1 0 0 1-.3-1.5 3.4 3.4 0 0 1 1.4-2.8 5.7 5.7 0 0 1 3.6-1 11 11 0 0 1 2.2.2 9.7 9.7 0 0 1 1.7.4l-.7 2.8a12.8 12.8 0 0 0-1.3-.4 7.2 7.2 0 0 0-1.7-.2q-1.6 0-1.6 1a1 1 0 0 0 0 .3.9.9 0 0 0 .3.4l.6.3 1 .4a13.6 13.6 0 0 1 2 .9 4 4 0 0 1 1.1.9 2.6 2.6 0 0 1 .6 1 4.6 4.6 0 0 1 .2 1.4 3.2 3.2 0 0 1-1.4 2.9 7 7 0 0 1-4 1 11.6 11.6 0 0 1-2.8-.4 11.4 11.4 0 0 1-1.5-.4l.6-3a12.7 12.7 0 0 0 1.9.6 9.7 9.7 0 0 0 1.9.2zm12 0a3.6 3.6 0 0 0 1.3-.2.7.7 0 0 0 .5-.7.9.9 0 0 0-.6-.8 9.2 9.2 0 0 0-1.6-.7l-1.5-.6a4.7 4.7 0 0 1-1.2-.8 3.4 3.4 0 0 1-.7-1.2 4.1 4.1 0 0 1-.3-1.5 3.4 3.4 0 0 1 1.3-2.8 5.7 5.7 0 0 1 3.7-1 11 11 0 0 1 2.2.2 9.7 9.7 0 0 1 1.7.4l-.7 2.8a12.8 12.8 0 0 0-1.3-.4 7.2 7.2 0 0 0-1.7-.2q-1.6 0-1.6 1a1 1 0 0 0 0 .3.9.9 0 0 0 .3.4l.6.3 1 .4a13.6 13.6 0 0 1 1.9.9 4 4 0 0 1 1.2.9 2.6 2.6 0 0 1 .6 1 4.6 4.6 0 0 1 .2 1.4 3.2 3.2 0 0 1-1.4 2.9 7 7 0 0 1-4 1 11.6 11.6 0 0 1-2.8-.4 11.4 11.4 0 0 1-1.5-.4l.6-3a12.7 12.7 0 0 0 1.9.6 9.7 9.7 0 0 0 1.9.2z"/><path fill="#5499f0" d="M173.7 25h1.4a5.5 5.5 0 0 0 4.2-1.4 5.4 5.4 0 0 0 1.3-4 5.5 5.5 0 0 0-1.3-3.9 5.5 5.5 0 0 0-4-1.3h-.8a5.8 5.8 0 0 0-.8 0zm10.8-5.3a9.7 9.7 0 0 1-.7 3.7 7 7 0 0 1-1.9 2.7 8 8 0 0 1-3 1.6 14 14 0 0 1-4 .5h-2.3a18 18 0 0 1-2.7-.4V11.6a20.6 20.6 0 0 1 2.7-.3l2.5-.1a14.4 14.4 0 0 1 3.8.4 8 8 0 0 1 3 1.6 6.7 6.7 0 0 1 2 2.6 10 10 0 0 1 .6 3.9zm6.5 0a7.9 7.9 0 0 0 .3 2.2 5.5 5.5 0 0 0 .9 1.7 4 4 0 0 0 1.4 1 5 5 0 0 0 3.7.1 3.7 3.7 0 0 0 1.4-1.1 4.9 4.9 0 0 0 .8-1.7 8 8 0 0 0 0-4.4 4.6 4.6 0 0 0-.8-1.7 3.6 3.6 0 0 0-1.4-1.1 4.3 4.3 0 0 0-1.9-.4 4.1 4.1 0 0 0-1.8.4 3.9 3.9 0 0 0-1.4 1 5.2 5.2 0 0 0-.9 1.8 7.8 7.8 0 0 0-.3 2.2zm12.7 0a10.2 10.2 0 0 1-.6 3.7 7.7 7.7 0 0 1-1.8 2.8 7.2 7.2 0 0 1-2.6 1.6 9.4 9.4 0 0 1-3.3.5 9.3 9.3 0 0 1-3.2-.5 7.5 7.5 0 0 1-2.6-1.6 7.8 7.8 0 0 1-1.8-2.8 10.2 10.2 0 0 1-.6-3.7 9.7 9.7 0 0 1 .6-3.8 8 8 0 0 1 1.8-2.7 7.6 7.6 0 0 1 2.7-1.7 9.2 9.2 0 0 1 3.1-.5 9.3 9.3 0 0 1 3.2.5 7.3 7.3 0 0 1 2.7 1.7 7.8 7.8 0 0 1 1.8 2.7 10 10 0 0 1 .6 3.8zm7.8-8.3l1 2a17.68 17.68 0 0 1 1.2 2.5l1.2 2.7 1.1 2.7 1.1-2.7 1.2-2.7 1.2-2.6 1-2h3.4l.5 3.8.3 4.3.3 4.4.2 4.2h-3.6l-.2-5.3-.4-5.7-1 2.2-1 2.4-1 2.4-.8 1.9h-2.6l-.8-2-1-2.3-1-2.4-1-2.2-.4 5.7-.2 5.3h-3.6l.2-4.2.3-4.4.4-4.3.4-3.7z"/></g></svg>
