<svg xmlns="http://www.w3.org/2000/svg" viewBox="0 0 590 364"><path d="M317.4 53.5C256.3 73 62.7-23.3 77.8 108.3c2.4 19.6 15 47.2 4.4 65.5-7.7 13.7-21.9 21.7-35.5 27-35.6 14.5-48.9 41.7-39.9 80.6C31 386 162.3 361.3 231.3 330.2c49-23 106.9-27 157.7-7.5 39.7 16 64.5 49.3 111.2 39.5 41.4-8.3 47.7-47.4 35.6-83.9-6.9-22.6-11.8-32 1.8-53.9 11.5-21.6 31.7-38 33.3-63.3.3-27.4-12.3-55-36.6-65.5-20-8.5-38-5-57.7-10.2C432.7 73 404.6 4.6 350 28.1c-13.5 6.4-21.1 21.2-36 25.5" fill="#5499f0"/><path d="M295.2 44c5.6 0 5.6-8.5 0-8.5s-5.5 8.6 0 8.6zM40.8 176.3c4.5 0 8.8-4 8.6-8.6a8.7 8.7 0 0 0-8.6-8.6c-4.5 0-8.8 4-8.6 8.6a8.7 8.7 0 0 0 8.6 8.7zM557.1 245c4.5 0 8.8-4 8.6-8.6a8.8 8.8 0 0 0-8.6-8.6c-4.5 0-8.8 4-8.5 8.6a8.7 8.7 0 0 0 8.5 8.6zM266.2 39.8c4.5 0 8.8-4 8.6-8.6a8.7 8.7 0 0 0-8.6-8.6c-4.5 0-8.8 4-8.6 8.6a8.8 8.8 0 0 0 8.6 8.6zM574.3 217.6c5.9 0 11.5-5.1 11.2-11.1s-5-11.2-11.2-11.2c-5.8 0-11.4 5.1-11.1 11.2s4.9 11.1 11.1 11.1zM11.8 204.7c5.9 0 11.5-5.1 11.2-11.1s-5-11.2-11.2-11.2C6 182.4.4 187.5.7 193.6s4.9 11.1 11.1 11.1zM488.4 70.3c5.9 0 11.5-5.1 11.2-11.2S494.7 48 488.4 48c-5.8 0-11.4 5.1-11.1 11.1s4.9 11.2 11.1 11.2zM291 25.8c6.7 0 13.1-6 12.8-12.9S298.1 0 291 0c-6.7 0-13.2 6-12.8 12.9s5.6 13 12.8 13zM583.5 237.8a6.5 6.5 0 1 0-6.4-6.4 6.5 6.5 0 0 0 6.4 6.4zM8.8 168.8a6.5 6.5 0 0 0 0-12.9 6.5 6.5 0 0 0 0 13zM515.3 82.8a6.5 6.5 0 1 0-6.5-6.5 6.5 6.5 0 0 0 6.5 6.5zM513.1 59.1c5.6 0 5.6-8.6 0-8.6s-5.5 8.6 0 8.6zM78.2 44.3c4.5 0 8.8-4 8.5-8.6a8.7 8.7 0 0 0-8.5-8.6c-4.5 0-8.8 4-8.6 8.6a8.8 8.8 0 0 0 8.6 8.6zM566.8 340.9c4.5 0 8.8-4 8.6-8.6a8.7 8.7 0 0 0-8.6-8.6c-4.5 0-8.8 4-8.6 8.6a8.7 8.7 0 0 0 8.6 8.6zM8.6 348.4c4.5 0 8.8-4 8.6-8.6a8.7 8.7 0 0 0-8.6-8.6c-4.5 0-8.8 4-8.6 8.6a8.8 8.8 0 0 0 8.6 8.6zM104 31.4c5.4 0 5.4-8.6 0-8.6s-5.6 8.6 0 8.6zM567.9 306.5c5.5 0 5.5-8.6 0-8.6s-5.6 8.6 0 8.6zM34.4 359.2c5.5 0 5.5-8.6 0-8.6s-5.6 8.6 0 8.6z" style="isolation:isolate" fill="#5499f0" opacity=".6"/><path d="M448.4 322.3a4.8 4.8 0 0 1 1.9.3l-30-45v-.5a6.6 6.6 0 0 1-3.3.9H158a6.5 6.5 0 0 1-3.3-.9v.5l-30 45a4.7 4.7 0 0 1 1.9-.3z" fill="#b3b3b3"/><path d="M450.3 322.6a4.8 4.8 0 0 0-1.9-.4H126.6a4.7 4.7 0 0 0-1.9.4c-2 .9-2.5 3.3-2.5 6.2v5.7c0 3.6.7 6.6 4.4 6.6h321.8c3.7 0 4.4-3 4.4-6.6v-5.7c0-2.9-.5-5.4-2.5-6.2z" fill="#37393a"/><path d="M347.8 331.8a3.4 3.4 0 0 1-3.4 3.5H230.6a3.4 3.4 0 0 1 0-7h113.8a3.4 3.4 0 0 1 3.4 3.5z" fill="#838383"/><path d="M417 95.4H158a6.6 6.6 0 0 0-6.6 6.7v169.3a6.6 6.6 0 0 0 3.3 5.7 6.5 6.5 0 0 0 3.3.9h259a6.6 6.6 0 0 0 6.6-6.6V102a6.6 6.6 0 0 0-6.6-6.7zm-129.5 9.2c-3.5 0-3.5-5.4 0-5.4s3.5 5.5 0 5.5z" fill="#37393a"/><path d="M287.5 99.2c-3.5 0-3.5 5.5 0 5.5s3.5-5.5 0-5.5zM404.6 260.7a5.7 5.7 0 0 1-5.7 5.7H176a5.7 5.7 0 0 1-5.7-5.7V115.1a5.7 5.7 0 0 1 5.7-5.6h222.8a5.7 5.7 0 0 1 5.7 5.6v145.6z" fill="#fff"/><path d="M255.2 186.1l-7.9-8 8-7.8a2.6 2.6 0 1 0-3.7-3.7l-8 8-7.8-8a2.6 2.6 0 0 0-3.7 3.7l8 7.9-8 7.9a2.6 2.6 0 0 0 3.7 3.6l7.9-7.9 7.9 8a2.6 2.6 0 0 0 1.8.7 2.6 2.6 0 0 0 1.8-4.4zM342.8 186.1l-7.9-8 8-7.8a2.6 2.6 0 1 0-3.7-3.7l-8 8-7.8-8a2.6 2.6 0 0 0-3.6 3.7l7.8 7.9-7.9 7.9a2.6 2.6 0 0 0 3.7 3.6l7.9-7.9 7.9 8a2.5 2.5 0 0 0 1.8.7 2.6 2.6 0 0 0 1.8-4.4z" fill="#37393a"/><path d="M323.6 234.8l-2.9-21.3h-5.9v17.1a6.9 6.9 0 0 0 6.9 6.9h3.7a6.9 6.9 0 0 0 6.9-6.9v-17h-5.9z" style="isolation:isolate" fill="#f05454" opacity=".6"/><path fill="#f05454" d="M326.4 213.5h-5.7l2.9 21.3 2.8-21.3z"/><path d="M345.7 209.2H229.3a2.1 2.1 0 1 0 0 4.3h116.4a2.1 2.1 0 1 0 0-4.3z" fill="#37393a"/><path d="M210.2 208.5c4.5 0 8.8-4 8.6-8.6a8.7 8.7 0 0 0-8.6-8.6c-4.5 0-8.8 4-8.6 8.6a8.7 8.7 0 0 0 8.6 8.6z" style="isolation:isolate" fill="#f05454" opacity=".6"/><path d="M364.8 208.5c4.5 0 8.8-4 8.6-8.6a8.7 8.7 0 0 0-8.6-8.6c-4.5 0-8.8 4-8.6 8.6a8.7 8.7 0 0 0 8.6 8.6z" fill="#f05454"/><path d="M379.4 72.9v56.8c0 5.5 8.6 5.5 8.6 0V72.9c0-5.5-8.6-5.5-8.6 0zM383.7 151.6a6.5 6.5 0 1 0-6.5-6.4 6.5 6.5 0 0 0 6.5 6.4z" fill="#f08c54"/><path d="M71.6 274.9h-4v7.1h-7.1v-7.1H45.8v-5l15-22.1h6.7v21.5h4.1zm-11.1-5.6v-5.8-2.7-3c0-1 .2-1.5.2-1.8h-.2l-.9 1.9a17 17 0 0 1-1.1 1.9l-6.3 9.5zM98.2 264.9a32.7 32.7 0 0 1-1.2 9.4 11.7 11.7 0 0 1-3.8 6 10.8 10.8 0 0 1-7 2.2q-6.2 0-9.1-4.7t-2.9-13a34 34 0 0 1 1.2-9.5 11.7 11.7 0 0 1 3.8-6 10.9 10.9 0 0 1 7-2.1q6 0 9 4.6t3 13zm-16.8 0a29.4 29.4 0 0 0 1 8.8 3.8 3.8 0 0 0 3.8 3q2.6 0 3.7-3a37.4 37.4 0 0 0 0-17.7q-1-3-3.8-3c-1.8 0-3 1-3.7 3a29.4 29.4 0 0 0-1 8.9zM126.6 274.9h-4.1v7.1h-7.1v-7.1h-14.7v-5l15-22.1h6.7v21.5h4.1zm-11.2-5.6v-5.8-2.7-3c0-1 .2-1.5.2-1.8h-.2l-.9 1.9a18.7 18.7 0 0 1-1.1 1.9l-6.3 9.5zM473.8 166.7h-4.1v7.1h-7v-7.1H448v-5l15-22.1h6.7V161h4.1zm-11.2-5.6v-5.8-2.7l.2-3 .1-1.8h-.2l-.9 1.9a17 17 0 0 1-1.1 1.9l-6.3 9.5zM500.3 156.7a32.7 32.7 0 0 1-1.2 9.4 11.7 11.7 0 0 1-3.8 6 10.8 10.8 0 0 1-7 2.1q-6.2 0-9-4.6t-3-13a34.4 34.4 0 0 1 1.2-9.5 11.7 11.7 0 0 1 3.8-6 10.8 10.8 0 0 1 7-2.1q6.2 0 9.1 4.6t3 13zm-16.7 0a29.3 29.3 0 0 0 1 8.8 3.8 3.8 0 0 0 3.7 3c1.8 0 3-1 3.8-3a28 28 0 0 0 1-8.8 28.1 28.1 0 0 0-1-8.9c-.7-2-2-3-3.8-3s-3 1-3.7 3a29.3 29.3 0 0 0-1 8.9zM528.8 166.7h-4.2v7.1h-7v-7.1H503v-5l15-22.1h6.7V161h4.1zm-11.2-5.6v-5.8-2.7-3c0-1 .2-1.5.2-1.8h-.2a27 27 0 0 1-.9 1.9 17 17 0 0 1-1.1 1.9l-6.3 9.5zM472.4 293.5h-2.5v4.2h-4.2v-4.2H457v-3l9-13.2h4v12.8h2.4zm-6.7-3.4v-3.4-1.6-1.8l.1-1-.6 1a10 10 0 0 1-.7 1.2l-3.7 5.6zM488.1 287.5a19.3 19.3 0 0 1-.7 5.6 7 7 0 0 1-2.3 3.6 6.4 6.4 0 0 1-4.1 1.3 5.9 5.9 0 0 1-5.4-2.8 14.8 14.8 0 0 1-1.7-7.7 20.6 20.6 0 0 1 .7-5.6 7 7 0 0 1 2.2-3.6 6.4 6.4 0 0 1 4.2-1.3 5.9 5.9 0 0 1 5.4 2.8 14.6 14.6 0 0 1 1.7 7.7zm-10 0a17.4 17.4 0 0 0 .6 5.3 2.2 2.2 0 0 0 2.2 1.7 2.3 2.3 0 0 0 2.3-1.7 22.6 22.6 0 0 0 0-10.5 2.3 2.3 0 0 0-2.3-1.8 2.2 2.2 0 0 0-2.2 1.8 17.4 17.4 0 0 0-.6 5.2zM505 293.5h-2.5v4.2h-4.1v-4.2h-8.7v-3l8.9-13.2h4v12.8h2.4zm-6.7-3.4v-3.4-1.6l.1-1.8v-1l-.6 1a10 10 0 0 1-.7 1.2l-3.7 5.6zM113.3 86.5H111v4.2h-4.2v-4.2H98v-3l9-13.2h4v12.8h2.4zm-6.6-3.4v-3.4V78v-1.8l.1-1-.6 1a11 11 0 0 1-.7 1.2l-3.7 5.6zM129.1 80.5a19.3 19.3 0 0 1-.7 5.6 7 7 0 0 1-2.3 3.6A6.4 6.4 0 0 1 122 91a5.9 5.9 0 0 1-5.4-2.8 14.8 14.8 0 0 1-1.7-7.7 20.6 20.6 0 0 1 .7-5.6 7 7 0 0 1 2.2-3.6A6.4 6.4 0 0 1 122 70a5.9 5.9 0 0 1 5.4 2.8 14.6 14.6 0 0 1 1.7 7.7zm-10 0a17.4 17.4 0 0 0 .6 5.3 2.2 2.2 0 0 0 2.3 1.7 2.3 2.3 0 0 0 2.2-1.7 16.8 16.8 0 0 0 .7-5.3 17 17 0 0 0-.7-5.2 2.3 2.3 0 0 0-2.2-1.8 2.2 2.2 0 0 0-2.2 1.8 17.4 17.4 0 0 0-.6 5.2zM146 86.5h-2.5v4.2h-4.1v-4.2h-8.7v-3l8.9-13.2h4v12.8h2.4zm-6.7-3.4v-3.4V78l.1-1.8v-1l-.6 1a11 11 0 0 1-.7 1.2l-3.7 5.6z" fill="#fff"/><path fill="#37393a" d="M328.5 286h-82l-1 5h84l-1-5zM395 291l-2-5h-58.8l1 5H395zM331.4 301.3l-1.1-6h-85.6l-1.1 6h87.8zM419 291l-3.4-5h-17.2l2.4 5h18.3zM337.1 301.3h62.1l-2.5-6H336l1.1 6zM405.7 301.3h20.4l-4.2-6h-19.1l3 6zM240.7 286h-58.6l-2.1 5h59.8l1-5zM146 305.5l-5.4 8h22.9l3.8-8H146zM242.8 305.5l-1.5 8h92.4l-1.5-8h-89.4zM338 305.5l1.4 8h64.9l-3.3-8h-63zM237.8 301.3l1.2-6h-60.8l-2.5 6H238zM429 305.5h-21.3l3.8 8h22.8l-5.4-8zM176.6 286h-17.3l-3.4 5h18.3l2.4-5zM174 305.5l-3.3 8h64.9l1.5-8H174zM169.3 301.3l2.9-6H153l-4.2 6h20.4z"/></svg>