<svg xmlns="http://www.w3.org/2000/svg" xmlns:xlink="http://www.w3.org/1999/xlink" style="display:none"><symbol id="bottom-arrow-s"><path d="M14.44.29a1 1 0 0 0-1.44 0L7.36 5.95 1.71.29A1 1 0 0 0 .29 1.71l6.37 6.36a1 1 0 0 0 1.41 0l6.36-6.36a1 1 0 0 0 .01-1.42z"/></symbol><symbol id="cart-icon" viewBox="0 0 24 24"><path d="M23.8 5.4A1 1 0 0 0 23 5H6.5l-.9-2.5A3.8 3.8 0 0 0 2 0H1a1 1 0 0 0 0 2h1a1.8 1.8 0 0 1 1.7 1.2L7.6 14a3 3 0 0 0 2.8 2h8.2a3 3 0 0 0 2.8-2l2.5-7.6a1 1 0 0 0-.1-1zm-4.3 8a1 1 0 0 1-1 .6h-8a1 1 0 0 1-1-.7L7.2 7h14.4zm-7.8 5.1a3 3 0 1 0 1 1.4 3 3 0 0 0-1-1.4zm-.9 3a1 1 0 1 1 .2-.5 1 1 0 0 1-.2.6zM18 18a3 3 0 1 0 2.1.9A3 3 0 0 0 18 18zm.7 3.7a1 1 0 1 1 .3-.7 1 1 0 0 1-.3.7z"/></symbol><symbol id="catalog-icon"><rect width="10" height="10" rx="1" ry="1"/><rect width="10" height="10" y="14" rx="1" ry="1"/><rect width="10" height="10" x="14" rx="1" ry="1"/><rect width="10" height="10" x="14" y="14" rx="1" ry="1"/></symbol><symbol id="close-icon"><path d="M10.7 9.7l8.5-8.5a.7.7 0 0 0-1-1L9.7 8.7 1.2.2a.7.7 0 0 0-1 1l8.5 8.5-8.5 8.5a.7.7 0 0 0 1 1l8.5-8.5 8.5 8.5a.7.7 0 0 0 1-1z"/></symbol><symbol id="compare-icon"><path d="M21.4 1.9A.8.8 0 0 0 22 1a.8.8 0 0 0-1-.6l-8.2 2.2V.7a.8.8 0 0 0-1.5 0V3L1.6 5.5a.8.8 0 0 0-.6 1A.8.8 0 0 0 2 7l1-.3-3 9.4v1.4L1.6 19h4.8L8 17.6V16L4.9 6.2l6.4-1.6v17.1H4.7a1.1 1.1 0 0 0 0 2.3h14.7a1.1 1.1 0 1 0 0-2.3h-6.6V4.1l6.6-1.7L17 12v1.6l1.4 1.5h4.2l1.4-1.6V12zM1.6 15.4l2.4-8 2.4 8zM18.4 11l2.1-8.6 2.1 8.6z"/></symbol><symbol id="down-arrow-icon"><path d="M10 9.08L.43 2.38A1 1 0 0 1 0 1.56V1A1 1 0 0 1 1.57.18L10 6.08l8.43-5.9A1 1 0 0 1 20 1v.56a1 1 0 0 1-.43.82z"/></symbol><symbol id="facebook-icon"><path d="M22.5 1.5A5 5 0 0 0 19 0H5a5 5 0 0 0-5 5v14a5 5 0 0 0 5 5h14a5 5 0 0 0 5-5V5a5 5 0 0 0-1.5-3.5zM22 19a3 3 0 0 1-3 3h-7.7v-6.2h2.8v-3.2h-2.8v-2c0-1 .3-1.6 1.4-1.6h1.5V6h-2.1c-2.2 0-3.7 1.5-3.7 4.2v2.4H6v3.2h2.4V22H5a3 3 0 0 1-3-3V5a3 3 0 0 1 3-3h14a3 3 0 0 1 3 3z"/></symbol><symbol id="faq-icon"><path d="M12 17a1 1 0 1 0 .7.3 1 1 0 0 0-.7-.3zm2.8-10.8a4 4 0 0 0-2-1.1A4 4 0 0 0 8 9a1 1 0 0 0 2 0 2 2 0 1 1 3 1.8 3.6 3.6 0 0 0-2 3.2 1 1 0 0 0 1 1 1 1 0 0 0 1-1 1.6 1.6 0 0 1 1-1.4 4 4 0 0 0 .8-6.3z"/><path d="M22.5 1.5A5 5 0 0 0 19 0H5a5 5 0 0 0-5 5v14a5 5 0 0 0 5 5h14a5 5 0 0 0 5-5V5a5 5 0 0 0-1.5-3.5zM22 19a3 3 0 0 1-3 3H5a3 3 0 0 1-3-3V5a3 3 0 0 1 3-3h14a3 3 0 0 1 3 3z"/></symbol><symbol id="favorite-icon"><path d="M23.8 2.3a7.5 7.5 0 0 0-10.7 0H13a7.5 7.5 0 0 0-10.7 0 7.7 7.7 0 0 0 0 10.8l10 10.6a1 1 0 0 0 1.5 0l10-10.7a7.7 7.7 0 0 0 0-10.8zm-1.6 9.2L13 21.3l-9.2-9.8a5.5 5.5 0 0 1 0-7.7 5.4 5.4 0 0 1 7.6 0l.8.8a1 1 0 0 0 1.6 0l.8-.8a5.4 5.4 0 0 1 9 1.7 5.5 5.5 0 0 1-1.4 6z"/></symbol><symbol id="filter-icon"><path d="M18.4 0H.5a.5.5 0 0 0-.4.8l6.6 8.3a1 1 0 0 1 .3.6v6a1 1 0 0 0 .4.9l3.8 2.8a.5.5 0 0 0 .8-.4V9.7a1 1 0 0 1 .2-.6L18.8.8a.5.5 0 0 0-.4-.8z"/></symbol><symbol id="gift-img" viewBox="0 0 123 128"><path d="M58 120.7a3.5 3.5 0 0 0 3.2 2.1h10.5a7.7 7.7 0 0 0 5.4-2.5 993.5 993.5 0 0 1 32.5 5.2 2.2 2.2 0 0 0 2-2.9A31.7 31.7 0 0 1 110 112l5.6.4h.1a2.1 2.1 0 0 0 1.8-1c2.5-3.7 5.5-9.5 5.5-20.9 0-9-2.8-19-9-21.7a2 2 0 0 0-1.3-.1c-6.2 1.6-16.2 4-24.4 5.7a24.1 24.1 0 0 0 6-3.8 15.4 15.4 0 0 0 5.3-9.4 11.9 11.9 0 0 0-3-9.6c-4.9-5.5-14-6-19.8-.7a29.4 29.4 0 0 0-7.5 13.4c-1-3.4-2.7-6.8-5.3-9.1a11.6 11.6 0 0 0-16.2.6 9.8 9.8 0 0 0-2.5 7.9 12.6 12.6 0 0 0 4.4 7.7 26.9 26.9 0 0 0 8.4 5 347.4 347.4 0 0 1-42-9.3 6.2 6.2 0 0 0-2.6-.6C6.8 66.5 0 77.1 0 97.3c0 17 5 24.6 8.2 29.7a2.2 2.2 0 0 0 1.8 1 2.2 2.2 0 0 0 .3 0c.4 0 35.2-6.1 47.7-7.5v.2zM59.9 81a27 27 0 0 1 4.6 16.3 41.3 41.3 0 0 1-.8 8.2c-12.5.2-31.9 2.2-41.6 3.2a33 33 0 0 0 3-15c0-8.7-1.4-15.9-3.8-20.7 10 2.7 28.8 7.4 38.6 8zm11.8 37.5H63a39 39 0 0 0 5.8-21.2 32 32 0 0 0-5-18.1 2.2 2.2 0 0 0 .1-.3 2 2 0 0 0 0-.2h7.8c4 0 8.3 7.6 8.3 18.6 0 11.2-4.6 21.2-8.3 21.2zm35 2.2a854 854 0 0 0-26.7-4.4 31.5 31.5 0 0 0 2.5-6.1l23.2 1.5a41.3 41.3 0 0 0 1 9zM113 73c3.3 2 5.7 9.3 5.7 17.4 0 9.3-2 14.1-4 17.5L83.4 106a47.6 47.6 0 0 0 .8-8.6c0-7-1.6-13-4.2-17 9.4-1.3 28.7-6.1 32.9-7.2zM79.7 54a10 10 0 0 1 6.8-2.7 9.3 9.3 0 0 1 7 3.1 7.5 7.5 0 0 1 2 6.1 11.2 11.2 0 0 1-4 6.8c-5.4 4.9-15.2 6.3-19.8 6.7.6-4.7 2.6-15 8-20zm-30 9a5.5 5.5 0 0 1 1.3-4.4 6.9 6.9 0 0 1 5.1-2.3 7.5 7.5 0 0 1 5 2c3.8 3.4 5.3 11.1 5.8 15.8a24.3 24.3 0 0 1-14.4-6 8.3 8.3 0 0 1-2.9-5zM4.2 97.3c0-17.3 5.4-26.4 9.2-26.4 2.6 0 7.4 6.7 7.4 22.8 0 9.5-2.9 15-5 15.8-1-1.1-2.7-5-2.7-11.2a42.3 42.3 0 0 1 1-9.3h3.4a2.2 2.2 0 0 0 0-4.3h-5a2.1 2.1 0 0 0-2 1.6 47 47 0 0 0-1.7 12c0 8.2 3 15.5 6.5 15.5a5.5 5.5 0 0 0 1-.2h.3c.3 0 28.8-3.4 45.8-3.8a22.2 22.2 0 0 1-3 6.2c-9.7.8-41.3 6.2-48.5 7.4-3-4.8-6.7-11.7-6.7-26.1zM73.4 8.4l1.3-.1h.5v.4l-.2 1.4a7 7 0 0 0 2 5.5 6.8 6.8 0 0 0 5.5 2l1.3-.1h.5v.4l-.2 1.3a7 7 0 0 0 2 5.5 1.9 1.9 0 0 0 2.7 0 1.9 1.9 0 0 0 0-2.6 3.3 3.3 0 0 1-1-2.7l.2-1c.1-1.3.3-2.6-.9-3.8s-2.5-1-3.8-.8h-1a3.4 3.4 0 0 1-2.6-.9 3.3 3.3 0 0 1-1-2.6l.2-1c.1-1.3.3-2.6-.9-3.8s-2.5-1-3.8-.9l-1 .1a3.3 3.3 0 0 1-2.7-.9 1.9 1.9 0 0 0-2.6 0 1.9 1.9 0 0 0 0 2.7 6.8 6.8 0 0 0 5.5 1.9z"/><path d="M32.3 53.5a6 6 0 0 0 0 5 6 6 0 0 0-3.6 3.2 1.9 1.9 0 0 0 1 2.5 1.8 1.8 0 0 0 .8.1 1.9 1.9 0 0 0 1.7-1c.3-.9 1-1.2 2.1-1.5a2.8 2.8 0 0 0 2.2-1.5c.5-1 0-1.9-.5-3a2.5 2.5 0 0 1-.2-2.3c.3-.8 1-1.1 2.1-1.5a2.8 2.8 0 0 0 2.3-1.5c.4-1 0-1.8-.6-2.9a2.4 2.4 0 0 1-.2-2.3 1.9 1.9 0 0 0-1-2.5 1.9 1.9 0 0 0-2.5 1 6 6 0 0 0 0 5 6 6 0 0 0-3.6 3.2zm76.2-39.6A7 7 0 0 0 113.4 2a6.8 6.8 0 0 0-4.9-2 7 7 0 0 0 0 13.9zm0-10.1a3.1 3.1 0 1 1-3.1 3.1 3.1 3.1 0 0 1 3.1-3.1zM13.1 45.4a6.9 6.9 0 1 0-4.9-2 6.8 6.8 0 0 0 5 2zm0-10.1a3.1 3.1 0 0 1 0 6.3 3.1 3.1 0 0 1-3.1-3.2 3.1 3.1 0 0 1 3.1-3.1zm10.2-11.9a9.2 9.2 0 1 0-9.1-9.2 9.2 9.2 0 0 0 9 9.2zm0-14.6a5.4 5.4 0 1 1-5.4 5.4 5.4 5.4 0 0 1 5.4-5.4zm88.3 31.6a1.9 1.9 0 0 0-2.6 0 1.9 1.9 0 0 0 0 2.7l4 4-4 4a1.9 1.9 0 0 0 0 2.7 1.9 1.9 0 0 0 2.6 0l4-4 4 4a1.9 1.9 0 0 0 2.7 0 1.9 1.9 0 0 0 0-2.7l-4-4 4-4a1.9 1.9 0 0 0 0-2.7 1.9 1.9 0 0 0-2.7 0l-4 4zm-59-15l-4 4a1.9 1.9 0 0 0 0 2.6 1.9 1.9 0 0 0 1.4.5 1.9 1.9 0 0 0 1.3-.5l4-4 4 4a1.9 1.9 0 0 0 2.6 0 1.9 1.9 0 0 0 0-2.7l-4-4 4-3.9a1.9 1.9 0 0 0 0-2.6 1.9 1.9 0 0 0-2.6 0l-4 4-4-4a1.9 1.9 0 0 0-2.7 0 1.9 1.9 0 0 0 0 2.6z"/></symbol><symbol id="instagram-icon"><path d="M22.5 1.5A5 5 0 0 0 19 0H5a5 5 0 0 0-5 5v14a5 5 0 0 0 5 5h14a5 5 0 0 0 5-5V5a5 5 0 0 0-1.5-3.5zM22 19a3 3 0 0 1-3 3H5a3 3 0 0 1-3-3V5a3 3 0 0 1 3-3h14a3 3 0 0 1 3 3z"/><path d="M12 7a5 5 0 1 0 5 5 5 5 0 0 0-5-5zm0 8a2.8 2.8 0 0 1-3-3 2.8 2.8 0 0 1 3-3 2.8 2.8 0 0 1 3 3 2.8 2.8 0 0 1-3 3z"/><circle cx="18.5" cy="5.5" r="1.5"/></symbol><symbol id="left-arrow-icon"><path d="M0 10L6.7.4a1 1 0 0 1 .8-.4h.6a1 1 0 0 1 .8 1.6L3 10l5.9 8.4a1 1 0 0 1-.8 1.6h-.6a1 1 0 0 1-.8-.4z"/></symbol><symbol id="left-arrow-s"><path d="M2.41 7.36l5.66-5.65A1 1 0 0 0 6.66.29L.29 6.66a1 1 0 0 0 0 1.41l6.36 6.36A1 1 0 0 0 8.07 13z"/></symbol><symbol id="left-arrow"><path d="M13 6.36H3.41l4.66-4.65A1 1 0 1 0 6.66.29L.29 6.66a1 1 0 0 0 0 1.41l6.36 6.36A1 1 0 0 0 8.07 13L3.41 8.36H13z"/></symbol><symbol id="news-icon"><path d="M19 18h-9a1 1 0 0 0 0 2h9a1 1 0 0 0 0-2zm0-4h-9a1 1 0 0 0 0 2h9a1 1 0 0 0 0-2zm-6.7-4.4l-.8 2.3a.4.4 0 0 0 .6.5l2.4-1.6 2.4 1.6a.4.4 0 0 0 .6-.5l-.7-2.3 1.5-1.5a.4.4 0 0 0-.3-.7h-2.4L15 5a.4.4 0 0 0-.8 0l-.7 2.3H11a.4.4 0 0 0-.3.7z"/><path d="M22.5 1.5A5 5 0 0 0 19 0h-9a5 5 0 0 0-5 5v5H1a1 1 0 0 0-1 1v8a5 5 0 0 0 1.5 3.5 5 5 0 0 0 .5.5 5 5 0 0 0 1.4.7h.1A5 5 0 0 0 5 24h14a5 5 0 0 0 5-5V5a5 5 0 0 0-1.5-3.5zM5 19a3 3 0 0 1-.9 2.1 3 3 0 0 1-.6.5A3 3 0 0 1 2 19v-7h3zm17 0a3 3 0 0 1-3 3H6a5 5 0 0 0 1-3V5a3 3 0 0 1 3-3h9a3 3 0 0 1 3 3z"/></symbol><symbol id="plus-big-icon"><path d="M13.1 21H0v-7.8h13.1V0H21v13.2h13V21H21v13h-8z"/></symbol><symbol id="right-arrow-icon"><path d="M9.08 10l-6.7 9.57a1 1 0 0 1-.82.43H1a1 1 0 0 1-.82-1.57L6.08 10 .18 1.57A1 1 0 0 1 1 0h.56a1 1 0 0 1 .82.43z"/></symbol><symbol id="right-arrow-s"><path d="M8.07 6.66L1.71.29A1 1 0 0 0 .29 1.71l5.66 5.65L.29 13a1 1 0 0 0 1.41 1.41l6.37-6.34a1 1 0 0 0 0-1.41z"/></symbol><symbol id="right-arrow"><path d="M12.71 6.66L6.34.29a1 1 0 0 0-1.41 1.42l4.66 4.65H0v2h9.59L4.93 13a1 1 0 0 0 1.41 1.41l6.36-6.36a1 1 0 0 0 .01-1.39z"/></symbol><symbol id="search-icon"><path d="M18.8 18l-4-4a8.4 8.4 0 1 0-6.3 3 8.3 8.3 0 0 0 4.6-1.4l4.1 4.1a.8.8 0 0 0 1.2 0l.5-.4a.8.8 0 0 0 0-1.2zm-17-9.5a6.7 6.7 0 1 1 6.7 6.8 6.7 6.7 0 0 1-6.7-6.8z"/></symbol><symbol id="sort-card-icon"><path d="M0 0h6v6H0zm0 18h6v6H0zm0-9h6v6H0zm18-9h6v6h-6zm0 18h6v6h-6zm0-9h6v6h-6zM9 0h6v6H9zm0 18h6v6H9zm0-9h6v6H9z"/></symbol><symbol id="sort-list-icon"><path d="M0 0h6v6H0zm0 18h6v6H0zM10 1h14v3H10zM0 9h6v6H0zm10 1h14v3H10zm0 9h14v3H10z"/></symbol><symbol id="star-icon"><path d="M8.88.24L11 5a.42.42 0 0 0 .34.24l5.31.53a.41.41 0 0 1 .23.71l-4 3.4a.4.4 0 0 0-.13.4l1.15 5.22a.41.41 0 0 1-.62.44l-4.56-2.75a.42.42 0 0 0-.43 0l-4.57 2.75a.41.41 0 0 1-.62-.44l1.18-5.18a.4.4 0 0 0-.13-.4l-4-3.4a.41.41 0 0 1 .22-.72l5.31-.53A.41.41 0 0 0 6 5L8.12.24a.42.42 0 0 1 .76 0z"/></symbol><symbol id="stor-icon"><path d="M9.8 11.3a4 4 0 1 0-1.5-1.8 4 4 0 0 0 1.5 1.8zm.5-4.4A2 2 0 1 1 10 8a2 2 0 0 1 .3-1.1z"/><path d="M24 22.6l-3-8a1 1 0 0 0-1-.6h-1.7A11.9 11.9 0 0 0 20 8 8 8 0 0 0 4 8a14 14 0 0 0 1.7 6H4a1 1 0 0 0-1 .7l-3 8A1 1 0 0 0 1 24h22a1 1 0 0 0 1-1.4zM7.7 3.8A6 6 0 0 1 18 8c0 5.3-4.5 8.8-6 9.8A12.4 12.4 0 0 1 6 8a6 6 0 0 1 1.8-4.2zM2.4 22l2.3-6H7a15.2 15.2 0 0 0 4.5 3.9 1 1 0 0 0 1 0A18 18 0 0 0 17 16h2.4l2.2 6z"/></symbol><symbol id="tel-call-icon"><path d="M17.5 13.7l-.5-.1a1 1 0 0 0-1 .3l-1.4 1.4a1.4 1.4 0 0 1-2 0l-3.9-3.9a1.4 1.4 0 0 1 0-2L10.1 8a1 1 0 0 0 .3-1l-.1-.5A10.8 10.8 0 0 0 5.8.2a1 1 0 0 0-1.2 0L4 .6a10.2 10.2 0 0 0-4 8.1A10.1 10.1 0 0 0 3 16l5 5a10.1 10.1 0 0 0 7.3 3 10.2 10.2 0 0 0 8.1-4l.4-.6a1 1 0 0 0 0-1.2 10.8 10.8 0 0 0-6.3-4.5zm1.3 7.4a8.1 8.1 0 0 1-3.5.8 8 8 0 0 1-5.8-2.4l-5-5A8 8 0 0 1 2 8.7a8.1 8.1 0 0 1 3.1-6.4 8.7 8.7 0 0 1 3 4.7l-1 1a3.5 3.5 0 0 0 0 5l3.9 3.8a3.6 3.6 0 0 0 5 0l1-1a8.6 8.6 0 0 1 4.6 3 8.1 8.1 0 0 1-2.9 2.3z"/><path d="M17 11.2a1 1 0 0 0 1.8-.8V10A4.8 4.8 0 0 0 14 5.2h-.4a1 1 0 0 0 0 2.1h.4a2.7 2.7 0 0 1 2.7 2.7v.4a1 1 0 0 0 .3.8z"/><path d="M20.8 3.2A11 11 0 0 0 13 0h-.5a1 1 0 0 0 0 2h.5a8.9 8.9 0 0 1 9 9v.5a1 1 0 1 0 2 0V11a11 11 0 0 0-3.2-7.8z"/></symbol><symbol id="top-arrow-s"><path fill="#1d1c1b" d="M14.44 6.66L8.07.29a1 1 0 0 0-1.41 0L.29 6.66a1 1 0 1 0 1.42 1.41l5.65-5.66L13 8.07a1 1 0 1 0 1.41-1.41z"/></symbol><symbol id="up-arrow-icon"><path d="M10 0l9.6 6.7a1 1 0 0 1 .4.8v.6a1 1 0 0 1-1.6.8L10 3 1.6 8.9A1 1 0 0 1 0 8.1v-.6a1 1 0 0 1 .4-.8z"/></symbol><symbol id="user-icon"><path d="M22.5 1.5A5 5 0 0 0 19 0H5a5 5 0 0 0-5 5v14a5 5 0 0 0 5 5h14a5 5 0 0 0 5-5V5a5 5 0 0 0-1.5-3.5zM12 16a4 4 0 0 1 4 4v2H8v-2a4 4 0 0 1 4-4zm-2-4a2 2 0 1 1 .6 1.4A2 2 0 0 1 10 12zm12 7a3 3 0 0 1-3 3h-1v-2a6 6 0 0 0-3.1-5.3 4 4 0 1 0-5.8 0A6 6 0 0 0 6 20v2H5a3 3 0 0 1-3-3V5a3 3 0 0 1 3-3h14a3 3 0 0 1 3 3z"/></symbol><symbol id="youtube-icon"><path d="M15.4 11.1l-6-3.3a1 1 0 0 0-1.4.9v6.6a1 1 0 0 0 1.5.9l6-3.3a1 1 0 0 0 0-1.8z"/><path d="M22.5 1.5A5 5 0 0 0 19 0H5a5 5 0 0 0-5 5v14a5 5 0 0 0 5 5h14a5 5 0 0 0 5-5V5a5 5 0 0 0-1.5-3.5zM22 19a3 3 0 0 1-3 3H5a3 3 0 0 1-3-3V5a3 3 0 0 1 3-3h14a3 3 0 0 1 3 3z"/></symbol></svg>