<svg xmlns="http://www.w3.org/2000/svg" viewBox="0 0 123 128"><path d="M58 120.7a3.5 3.5 0 0 0 3.2 2.1h10.5a7.7 7.7 0 0 0 5.4-2.5 993.5 993.5 0 0 1 32.5 5.2 2.2 2.2 0 0 0 2-2.9A31.7 31.7 0 0 1 110 112l5.6.4h.1a2.1 2.1 0 0 0 1.8-1c2.5-3.7 5.5-9.5 5.5-20.9 0-9-2.8-19-9-21.7a2 2 0 0 0-1.3-.1c-6.2 1.6-16.2 4-24.4 5.7a24.1 24.1 0 0 0 6-3.8 15.4 15.4 0 0 0 5.3-9.4 11.9 11.9 0 0 0-3-9.6c-4.9-5.5-14-6-19.8-.7a29.4 29.4 0 0 0-7.5 13.4c-1-3.4-2.7-6.8-5.3-9.1a11.6 11.6 0 0 0-16.2.6 9.8 9.8 0 0 0-2.5 7.9 12.6 12.6 0 0 0 4.4 7.7 26.9 26.9 0 0 0 8.4 5 347.4 347.4 0 0 1-42-9.3 6.2 6.2 0 0 0-2.6-.6C6.8 66.5 0 77.1 0 97.3c0 17 5 24.6 8.2 29.7a2.2 2.2 0 0 0 1.8 1 2.2 2.2 0 0 0 .3 0c.4 0 35.2-6.1 47.7-7.5v.2zM59.9 81a27 27 0 0 1 4.6 16.3 41.3 41.3 0 0 1-.8 8.2c-12.5.2-31.9 2.2-41.6 3.2a33 33 0 0 0 3-15c0-8.7-1.4-15.9-3.8-20.7 10 2.7 28.8 7.4 38.6 8zm11.8 37.5H63a39 39 0 0 0 5.8-21.2 32 32 0 0 0-5-18.1 2.2 2.2 0 0 0 .1-.3 2 2 0 0 0 0-.2h7.8c4 0 8.3 7.6 8.3 18.6 0 11.2-4.6 21.2-8.3 21.2zm35 2.2a854 854 0 0 0-26.7-4.4 31.5 31.5 0 0 0 2.5-6.1l23.2 1.5a41.3 41.3 0 0 0 1 9zM113 73c3.3 2 5.7 9.3 5.7 17.4 0 9.3-2 14.1-4 17.5L83.4 106a47.6 47.6 0 0 0 .8-8.6c0-7-1.6-13-4.2-17 9.4-1.3 28.7-6.1 32.9-7.2zm-33.3-19a10 10 0 0 1 6.8-2.7 9.3 9.3 0 0 1 7 3.1 7.5 7.5 0 0 1 2 6.1 11.2 11.2 0 0 1-4 6.8c-5.4 4.9-15.2 6.3-19.8 6.7.6-4.7 2.6-15 8-20zm-30 9a5.5 5.5 0 0 1 1.3-4.4 6.9 6.9 0 0 1 5.1-2.3 7.5 7.5 0 0 1 5 2c3.8 3.4 5.3 11.1 5.8 15.8a24.3 24.3 0 0 1-14.4-6 8.3 8.3 0 0 1-2.9-5zM4.2 97.3c0-17.3 5.4-26.4 9.2-26.4 2.6 0 7.4 6.7 7.4 22.8 0 9.5-2.9 15-5 15.8-1-1.1-2.7-5-2.7-11.2a42.3 42.3 0 0 1 1-9.3h3.4a2.2 2.2 0 0 0 0-4.3h-5a2.1 2.1 0 0 0-2 1.6 47 47 0 0 0-1.7 12c0 8.2 3 15.5 6.5 15.5a5.5 5.5 0 0 0 1-.2h.3c.3 0 28.8-3.4 45.8-3.8a22.2 22.2 0 0 1-3 6.2c-9.7.8-41.3 6.2-48.5 7.4-3-4.8-6.7-11.7-6.7-26.1zM73.4 8.4l1.3-.1h.5v.4l-.2 1.4a7 7 0 0 0 2 5.5 6.8 6.8 0 0 0 5.5 2l1.3-.1h.5v.4l-.2 1.3a7 7 0 0 0 2 5.5 1.9 1.9 0 0 0 2.7 0 1.9 1.9 0 0 0 0-2.6 3.3 3.3 0 0 1-1-2.7l.2-1c.1-1.3.3-2.6-.9-3.8s-2.5-1-3.8-.8h-1a3.4 3.4 0 0 1-2.6-.9 3.3 3.3 0 0 1-1-2.6l.2-1c.1-1.3.3-2.6-.9-3.8s-2.5-1-3.8-.9l-1 .1a3.3 3.3 0 0 1-2.7-.9 1.9 1.9 0 0 0-2.6 0 1.9 1.9 0 0 0 0 2.7 6.8 6.8 0 0 0 5.5 1.9z"/><path d="M32.3 53.5a6 6 0 0 0 0 5 6 6 0 0 0-3.6 3.2 1.9 1.9 0 0 0 1 2.5 1.8 1.8 0 0 0 .8.1 1.9 1.9 0 0 0 1.7-1c.3-.9 1-1.2 2.1-1.5a2.8 2.8 0 0 0 2.2-1.5c.5-1 0-1.9-.5-3a2.5 2.5 0 0 1-.2-2.3c.3-.8 1-1.1 2.1-1.5a2.8 2.8 0 0 0 2.3-1.5c.4-1 0-1.8-.6-2.9a2.4 2.4 0 0 1-.2-2.3 1.9 1.9 0 0 0-1-2.5 1.9 1.9 0 0 0-2.5 1 6 6 0 0 0 0 5 6 6 0 0 0-3.6 3.2zM108.5 13.9A7 7 0 0 0 113.4 2a6.8 6.8 0 0 0-4.9-2 7 7 0 0 0 0 13.9zm0-10.1a3.1 3.1 0 1 1-3.1 3.1 3.1 3.1 0 0 1 3.1-3.1zM13.1 45.4a6.9 6.9 0 1 0-4.9-2 6.8 6.8 0 0 0 5 2zm0-10.1a3.1 3.1 0 0 1 0 6.3 3.1 3.1 0 0 1-3.1-3.2 3.1 3.1 0 0 1 3.1-3.1zM23.3 23.4a9.2 9.2 0 1 0-9.1-9.2 9.2 9.2 0 0 0 9 9.2zm0-14.6a5.4 5.4 0 1 1-5.4 5.4 5.4 5.4 0 0 1 5.4-5.4zM111.6 40.4a1.9 1.9 0 0 0-2.6 0 1.9 1.9 0 0 0 0 2.7l4 4-4 4a1.9 1.9 0 0 0 0 2.7 1.9 1.9 0 0 0 2.6 0l4-4 4 4a1.9 1.9 0 0 0 2.7 0 1.9 1.9 0 0 0 0-2.7l-4-4 4-4a1.9 1.9 0 0 0 0-2.7 1.9 1.9 0 0 0-2.7 0l-4 4zM52.6 25.4l-4 4a1.9 1.9 0 0 0 0 2.6 1.9 1.9 0 0 0 1.4.5 1.9 1.9 0 0 0 1.3-.5l4-4 4 4a1.9 1.9 0 0 0 2.6 0 1.9 1.9 0 0 0 0-2.7l-4-4 4-3.9a1.9 1.9 0 0 0 0-2.6 1.9 1.9 0 0 0-2.6 0l-4 4-4-4a1.9 1.9 0 0 0-2.7 0 1.9 1.9 0 0 0 0 2.6z"/></svg>
