<svg xmlns="http://www.w3.org/2000/svg" width="24" height="24" viewBox="0 0 24 24"><path d="M19 18h-9a1 1 0 0 0 0 2h9a1 1 0 0 0 0-2zM19 14h-9a1 1 0 0 0 0 2h9a1 1 0 0 0 0-2zM12.3 9.6l-.8 2.3a.4.4 0 0 0 .6.5l2.4-1.6 2.4 1.6a.4.4 0 0 0 .6-.5l-.7-2.3 1.5-1.5a.4.4 0 0 0-.3-.7h-2.4L15 5a.4.4 0 0 0-.8 0l-.7 2.3H11a.4.4 0 0 0-.3.7z"/><path d="M22.5 1.5A5 5 0 0 0 19 0h-9a5 5 0 0 0-5 5v5H1a1 1 0 0 0-1 1v8a5 5 0 0 0 1.5 3.5 5 5 0 0 0 .5.5 5 5 0 0 0 1.4.7h.1A5 5 0 0 0 5 24h14a5 5 0 0 0 5-5V5a5 5 0 0 0-1.5-3.5zM5 19a3 3 0 0 1-.9 2.1 3 3 0 0 1-.6.5A3 3 0 0 1 2 19v-7h3zm17 0a3 3 0 0 1-3 3H6a5 5 0 0 0 1-3V5a3 3 0 0 1 3-3h9a3 3 0 0 1 3 3z"/></svg>