<svg xmlns="http://www.w3.org/2000/svg" width="24" height="24" viewBox="0 0 24 24"><path d="M9.8 11.3a4 4 0 1 0-1.5-1.8 4 4 0 0 0 1.5 1.8zm.5-4.4A2 2 0 1 1 10 8a2 2 0 0 1 .3-1.1z"/><path d="M24 22.6l-3-8a1 1 0 0 0-1-.6h-1.7A11.9 11.9 0 0 0 20 8 8 8 0 0 0 4 8a14 14 0 0 0 1.7 6H4a1 1 0 0 0-1 .7l-3 8A1 1 0 0 0 1 24h22a1 1 0 0 0 1-1.4zM7.7 3.8A6 6 0 0 1 18 8c0 5.3-4.5 8.8-6 9.8A12.4 12.4 0 0 1 6 8a6 6 0 0 1 1.8-4.2zM2.4 22l2.3-6H7a15.2 15.2 0 0 0 4.5 3.9 1 1 0 0 0 1 0A18 18 0 0 0 17 16h2.4l2.2 6z"/></svg>