<svg xmlns="http://www.w3.org/2000/svg" width="24" height="24" viewBox="0 0 24 24"><path d="M17.5 13.7l-.5-.1a1 1 0 0 0-1 .3l-1.4 1.4a1.4 1.4 0 0 1-2 0l-3.9-3.9a1.4 1.4 0 0 1 0-2L10.1 8a1 1 0 0 0 .3-1l-.1-.5A10.8 10.8 0 0 0 5.8.2a1 1 0 0 0-1.2 0L4 .6A10.2 10.2 0 0 0 0 8.7 10.1 10.1 0 0 0 3 16L8 21a10.1 10.1 0 0 0 7.3 3 10.2 10.2 0 0 0 8.1-4l.4-.6a1 1 0 0 0 0-1.2 10.8 10.8 0 0 0-6.3-4.5zm1.3 7.4a8.1 8.1 0 0 1-3.5.8 8 8 0 0 1-5.8-2.4l-5-5A8 8 0 0 1 2 8.7a8.1 8.1 0 0 1 3.1-6.4 8.7 8.7 0 0 1 3 4.7l-1 1a3.5 3.5 0 0 0 0 5l3.9 3.8a3.6 3.6 0 0 0 5 0l1-1a8.6 8.6 0 0 1 4.6 3 8.1 8.1 0 0 1-2.9 2.3z"/><path d="M17 11.2a1 1 0 0 0 1.8-.8V10A4.8 4.8 0 0 0 14 5.2h-.4a1 1 0 0 0 0 2.1h.4a2.7 2.7 0 0 1 2.7 2.7v.4a1 1 0 0 0 .3.8z"/><path d="M20.8 3.2A11 11 0 0 0 13 0h-.5a1 1 0 0 0 0 2h.5a8.9 8.9 0 0 1 9 9v.5a1 1 0 1 0 2 0V11a11 11 0 0 0-3.2-7.8z"/></svg>